<svg xmlns="http://www.w3.org/2000/svg" viewBox="0 0 400 200">
  <!-- Base dark blue background -->
  <rect width="100%" height="100%" fill="#010419"/>
  
  <!-- Pattern of alternating lines with multiple densities -->
  <pattern id="refinedAcousticPattern" width="100" height="100" patternUnits="userSpaceOnUse">
    <!-- Top left square - horizontal lines -->
    <g opacity="0.7">
      <rect x="0" y="0" width="50" height="50" fill="#010419"/>
      <line x1="0" y1="4" x2="50" y2="4" stroke="#0a1248" stroke-width="1"/>
      <line x1="0" y1="8" x2="50" y2="8" stroke="#0a1248" stroke-width="1"/>
      <line x1="0" y1="12" x2="50" y2="12" stroke="#0a1248" stroke-width="1"/>
      <line x1="0" y1="16" x2="50" y2="16" stroke="#0a1248" stroke-width="1.2"/>
      <line x1="0" y1="20" x2="50" y2="20" stroke="#0a1248" stroke-width="1"/>
      <line x1="0" y1="24" x2="50" y2="24" stroke="#0a1248" stroke-width="1"/>
      <line x1="0" y1="28" x2="50" y2="28" stroke="#0a1248" stroke-width="1"/>
      <line x1="0" y1="32" x2="50" y2="32" stroke="#0a1248" stroke-width="1.2"/>
      <line x1="0" y1="36" x2="50" y2="36" stroke="#0a1248" stroke-width="1"/>
      <line x1="0" y1="40" x2="50" y2="40" stroke="#0a1248" stroke-width="1"/>
      <line x1="0" y1="44" x2="50" y2="44" stroke="#0a1248" stroke-width="1"/>
      <line x1="0" y1="48" x2="50" y2="48" stroke="#0a1248" stroke-width="1.2"/>
    </g>
    
    <!-- Top right square - vertical lines -->
    <g opacity="0.7">
      <rect x="50" y="0" width="50" height="50" fill="#010419"/>
      <line x1="54" y1="0" x2="54" y2="50" stroke="#0a1248" stroke-width="1"/>
      <line x1="58" y1="0" x2="58" y2="50" stroke="#0a1248" stroke-width="1"/>
      <line x1="62" y1="0" x2="62" y2="50" stroke="#0a1248" stroke-width="1"/>
      <line x1="66" y1="0" x2="66" y2="50" stroke="#0a1248" stroke-width="1.2"/>
      <line x1="70" y1="0" x2="70" y2="50" stroke="#0a1248" stroke-width="1"/>
      <line x1="74" y1="0" x2="74" y2="50" stroke="#0a1248" stroke-width="1"/>
      <line x1="78" y1="0" x2="78" y2="50" stroke="#0a1248" stroke-width="1"/>
      <line x1="82" y1="0" x2="82" y2="50" stroke="#0a1248" stroke-width="1.2"/>
      <line x1="86" y1="0" x2="86" y2="50" stroke="#0a1248" stroke-width="1"/>
      <line x1="90" y1="0" x2="90" y2="50" stroke="#0a1248" stroke-width="1"/>
      <line x1="94" y1="0" x2="94" y2="50" stroke="#0a1248" stroke-width="1"/>
      <line x1="98" y1="0" x2="98" y2="50" stroke="#0a1248" stroke-width="1.2"/>
    </g>
    
    <!-- Bottom left square - vertical lines -->
    <g opacity="0.7">
      <rect x="0" y="50" width="50" height="50" fill="#010419"/>
      <line x1="4" y1="50" x2="4" y2="100" stroke="#0a1248" stroke-width="1"/>
      <line x1="8" y1="50" x2="8" y2="100" stroke="#0a1248" stroke-width="1"/>
      <line x1="12" y1="50" x2="12" y2="100" stroke="#0a1248" stroke-width="1"/>
      <line x1="16" y1="50" x2="16" y2="100" stroke="#0a1248" stroke-width="1.2"/>
      <line x1="20" y1="50" x2="20" y2="100" stroke="#0a1248" stroke-width="1"/>
      <line x1="24" y1="50" x2="24" y2="100" stroke="#0a1248" stroke-width="1"/>
      <line x1="28" y1="50" x2="28" y2="100" stroke="#0a1248" stroke-width="1"/>
      <line x1="32" y1="50" x2="32" y2="100" stroke="#0a1248" stroke-width="1.2"/>
      <line x1="36" y1="50" x2="36" y2="100" stroke="#0a1248" stroke-width="1"/>
      <line x1="40" y1="50" x2="40" y2="100" stroke="#0a1248" stroke-width="1"/>
      <line x1="44" y1="50" x2="44" y2="100" stroke="#0a1248" stroke-width="1"/>
      <line x1="48" y1="50" x2="48" y2="100" stroke="#0a1248" stroke-width="1.2"/>
    </g>
    
    <!-- Bottom right square - horizontal lines -->
    <g opacity="0.7">
      <rect x="50" y="50" width="50" height="50" fill="#010419"/>
      <line x1="50" y1="54" x2="100" y2="54" stroke="#0a1248" stroke-width="1"/>
      <line x1="50" y1="58" x2="100" y2="58" stroke="#0a1248" stroke-width="1"/>
      <line x1="50" y1="62" x2="100" y2="62" stroke="#0a1248" stroke-width="1"/>
      <line x1="50" y1="66" x2="100" y2="66" stroke="#0a1248" stroke-width="1.2"/>
      <line x1="50" y1="70" x2="100" y2="70" stroke="#0a1248" stroke-width="1"/>
      <line x1="50" y1="74" x2="100" y2="74" stroke="#0a1248" stroke-width="1"/>
      <line x1="50" y1="78" x2="100" y2="78" stroke="#0a1248" stroke-width="1"/>
      <line x1="50" y1="82" x2="100" y2="82" stroke="#0a1248" stroke-width="1.2"/>
      <line x1="50" y1="86" x2="100" y2="86" stroke="#0a1248" stroke-width="1"/>
      <line x1="50" y1="90" x2="100" y2="90" stroke="#0a1248" stroke-width="1"/>
      <line x1="50" y1="94" x2="100" y2="94" stroke="#0a1248" stroke-width="1"/>
      <line x1="50" y1="98" x2="100" y2="98" stroke="#0a1248" stroke-width="1.2"/>
    </g>
  </pattern>
  
  <rect width="100%" height="100%" fill="url(#refinedAcousticPattern)"/>
</svg>